<?xml version="1.0" encoding="utf-8"?>
<!-- Generator: Adobe Illustrator 23.0.0, SVG Export Plug-In . SVG Version: 6.00 Build 0)  -->
<svg version="1.1" xmlns="http://www.w3.org/2000/svg" xmlns:xlink="http://www.w3.org/1999/xlink" x="0px" y="0px"
	 viewBox="0 0 170 170" style="enable-background:new 0 0 170 170;" xml:space="preserve">
<style type="text/css">
	.st0{fill:none;stroke:#FFABFF;stroke-width:0.25;stroke-miterlimit:10;}
	.st1{display:none;}
	.st2{display:inline;fill:none;stroke:#0072FF;stroke-width:0.25;stroke-miterlimit:10;}
</style>
<g id="Layer_1">
	<path class="st0" d="M44.03,146.06c-8.16-11.46-23.63-4.12-32.69-14.89c-7.97-9.48-5.46-26.4-0.58-36.56
		c5.95-12.37,13.72-11.17,16.83-22.24c1.7-6.05-0.26-14.3-4.26-30.56c-4.75-19.33-6.51-20.01-5.42-23.4
		c5.14-15.96,52.11-25.38,86.46-6.38c24.24,13.4,34.73,36.83,36.75,41.59c11.49,27.04-0.33,39.9,13.73,72.53
		c6.91,16.04,14.26,23.37,10.64,29.01c-4.45,6.93-20.98,4.33-46.03,0.39c-28.12-4.43-34.43-9.05-45.45-4.45
		c-13.38,5.58-18.61,18.44-23.79,16.25C45.49,165.35,50.3,154.88,44.03,146.06z"/>
</g>
<g id="Layer_2" class="st1">
	<polygon class="st2" points="85,3.33 18.37,35.42 1.92,107.52 48.02,165.33 121.98,165.33 168.08,107.52 151.63,35.42 	"/>
</g>
</svg>
